<svg xmlns="http://www.w3.org/2000/svg" xmlns:xlink="http://www.w3.org/1999/xlink" width="500" zoomAndPan="magnify" viewBox="0 0 375 374.999991" height="500" preserveAspectRatio="xMidYMid meet" version="1.0"><defs><g/><clipPath id="32c165649e"><path d="M 168.390625 168.8125 L 202.140625 168.8125 L 202.140625 201.8125 L 168.390625 201.8125 Z M 168.390625 168.8125 " clip-rule="nonzero"/></clipPath></defs><rect x="-37.5" width="450" fill="#ffffff" y="-37.499999" height="449.999989" fill-opacity="1"/><rect x="-37.5" width="450" fill="#ffffff" y="-37.499999" height="449.999989" fill-opacity="1"/><g fill="#000000" fill-opacity="1"><g transform="translate(61.111707, 208.579949)"><g><path d="M 50.34375 -38.484375 C 54.457031 -34.003906 56.515625 -28.507812 56.515625 -22 C 56.515625 -15.5 54.457031 -9.992188 50.34375 -5.484375 C 46.238281 -0.972656 41.019531 1.28125 34.6875 1.28125 C 28.863281 1.28125 24.066406 -0.546875 20.296875 -4.203125 L 20.296875 22.265625 L 5.140625 22.265625 L 5.140625 -43.9375 L 20.125 -43.9375 L 20.125 -38.96875 L 20.296875 -38.96875 C 24.066406 -43.132812 28.863281 -45.21875 34.6875 -45.21875 C 41.019531 -45.21875 46.238281 -42.972656 50.34375 -38.484375 Z M 37.46875 -14.546875 C 39.4375 -16.492188 40.421875 -18.976562 40.421875 -22 C 40.421875 -25.03125 39.476562 -27.5 37.59375 -29.40625 C 35.707031 -31.320312 33.222656 -32.28125 30.140625 -32.28125 C 27.171875 -32.28125 24.726562 -31.3125 22.8125 -29.375 C 20.90625 -27.4375 19.953125 -24.984375 19.953125 -22.015625 C 19.953125 -18.984375 20.9375 -16.492188 22.90625 -14.546875 C 24.875 -12.609375 27.285156 -11.640625 30.140625 -11.640625 C 33.054688 -11.640625 35.5 -12.609375 37.46875 -14.546875 Z M 37.46875 -14.546875 "/></g></g></g><g fill="#000000" fill-opacity="1"><g transform="translate(112.92601, 208.579949)"><g><path d="M 8.125 -5.4375 C 4.019531 -9.914062 1.96875 -15.410156 1.96875 -21.921875 C 1.96875 -28.429688 4.019531 -33.941406 8.125 -38.453125 C 12.238281 -42.960938 17.46875 -45.21875 23.8125 -45.21875 C 29.632812 -45.21875 34.429688 -43.390625 38.203125 -39.734375 L 38.203125 -43.9375 L 53.359375 -43.9375 L 53.359375 0 L 38.359375 0 L 38.359375 -4.96875 L 38.203125 -4.96875 C 34.429688 -0.800781 29.632812 1.28125 23.8125 1.28125 C 17.46875 1.28125 12.238281 -0.957031 8.125 -5.4375 Z M 21.015625 -29.375 C 19.046875 -27.4375 18.0625 -24.953125 18.0625 -21.921875 C 18.0625 -18.898438 19.003906 -16.429688 20.890625 -14.515625 C 22.773438 -12.597656 25.257812 -11.640625 28.34375 -11.640625 C 31.3125 -11.640625 33.75 -12.609375 35.65625 -14.546875 C 37.570312 -16.492188 38.53125 -18.953125 38.53125 -21.921875 C 38.53125 -24.953125 37.546875 -27.4375 35.578125 -29.375 C 33.609375 -31.3125 31.195312 -32.28125 28.34375 -32.28125 C 25.4375 -32.28125 22.992188 -31.3125 21.015625 -29.375 Z M 21.015625 -29.375 "/></g></g></g><g fill="#000000" fill-opacity="1"><g transform="translate(164.740313, 208.579949)"><g><path d="M 55.328125 -43.9375 L 34.421875 -22.953125 L 57.375 0 L 37.859375 0 L 20.296875 -17.5625 L 20.296875 0 L 5.140625 0 L 5.140625 -73.65625 L 20.296875 -73.65625 L 20.296875 -28.609375 L 35.625 -43.9375 Z M 55.328125 -43.9375 "/></g></g></g><g fill="#000000" fill-opacity="1"><g transform="translate(213.385753, 208.579949)"><g><path d="M 8.125 -5.4375 C 4.019531 -9.914062 1.96875 -15.410156 1.96875 -21.921875 C 1.96875 -28.429688 4.019531 -33.941406 8.125 -38.453125 C 12.238281 -42.960938 17.46875 -45.21875 23.8125 -45.21875 C 29.632812 -45.21875 34.429688 -43.390625 38.203125 -39.734375 L 38.203125 -43.9375 L 53.359375 -43.9375 L 53.359375 0 L 38.359375 0 L 38.359375 -4.96875 L 38.203125 -4.96875 C 34.429688 -0.800781 29.632812 1.28125 23.8125 1.28125 C 17.46875 1.28125 12.238281 -0.957031 8.125 -5.4375 Z M 21.015625 -29.375 C 19.046875 -27.4375 18.0625 -24.953125 18.0625 -21.921875 C 18.0625 -18.898438 19.003906 -16.429688 20.890625 -14.515625 C 22.773438 -12.597656 25.257812 -11.640625 28.34375 -11.640625 C 31.3125 -11.640625 33.75 -12.609375 35.65625 -14.546875 C 37.570312 -16.492188 38.53125 -18.953125 38.53125 -21.921875 C 38.53125 -24.953125 37.546875 -27.4375 35.578125 -29.375 C 33.609375 -31.3125 31.195312 -32.28125 28.34375 -32.28125 C 25.4375 -32.28125 22.992188 -31.3125 21.015625 -29.375 Z M 21.015625 -29.375 "/></g></g></g><g fill="#000000" fill-opacity="1"><g transform="translate(265.200068, 208.579949)"><g><path d="M 5.140625 0 L 5.140625 -43.9375 L 20.296875 -43.9375 L 20.296875 -37.59375 L 20.46875 -37.59375 C 20.582031 -37.820312 20.765625 -38.109375 21.015625 -38.453125 C 21.273438 -38.796875 21.832031 -39.394531 22.6875 -40.25 C 23.550781 -41.101562 24.46875 -41.875 25.4375 -42.5625 C 26.40625 -43.25 27.660156 -43.863281 29.203125 -44.40625 C 30.742188 -44.945312 32.3125 -45.21875 33.90625 -45.21875 C 35.5625 -45.21875 37.1875 -44.988281 38.78125 -44.53125 C 40.382812 -44.070312 41.5625 -43.613281 42.3125 -43.15625 L 43.5 -42.484375 L 37.171875 -29.625 C 35.285156 -31.226562 32.660156 -32.03125 29.296875 -32.03125 C 27.460938 -32.03125 25.890625 -31.628906 24.578125 -30.828125 C 23.265625 -30.023438 22.335938 -29.050781 21.796875 -27.90625 C 21.253906 -26.769531 20.867188 -25.800781 20.640625 -25 C 20.410156 -24.207031 20.296875 -23.582031 20.296875 -23.125 L 20.296875 0 Z M 5.140625 0 "/></g></g></g><g fill="#000000" fill-opacity="1"><g transform="translate(301.170101, 208.579949)"><g><path d="M 14.90625 -18.328125 C 17.644531 -18.328125 19.96875 -17.367188 21.875 -15.453125 C 23.789062 -13.546875 24.75 -11.222656 24.75 -8.484375 C 24.75 -5.796875 23.789062 -3.492188 21.875 -1.578125 C 19.96875 0.328125 17.644531 1.28125 14.90625 1.28125 C 12.21875 1.28125 9.914062 0.328125 8 -1.578125 C 6.09375 -3.492188 5.140625 -5.796875 5.140625 -8.484375 C 5.140625 -11.222656 6.09375 -13.546875 8 -15.453125 C 9.914062 -17.367188 12.21875 -18.328125 14.90625 -18.328125 Z M 14.90625 -18.328125 "/></g></g></g><g clip-path="url(#32c165649e)"><path fill="#ffffff" d="M 185.078125 168.804688 L 185.078125 173.675781 C 183.273438 182.007812 181.414062 183.859375 173.070312 185.664062 L 168.390625 185.664062 L 168.390625 186.277344 L 173.121094 186.277344 C 181.421875 188.078125 183.277344 189.941406 185.078125 198.257812 L 185.078125 201.808594 L 185.695312 201.808594 L 185.695312 198.257812 C 187.492188 189.941406 189.351562 188.078125 197.652344 186.277344 L 202.292969 186.277344 L 202.292969 185.664062 L 197.703125 185.664062 C 189.355469 183.859375 187.496094 182.007812 185.695312 173.675781 L 185.695312 168.804688 Z M 185.078125 168.804688 " fill-opacity="1" fill-rule="nonzero"/></g><g fill="#000000" fill-opacity="1"><g transform="translate(156.146676, 231.296203)"><g><path d="M 1.109375 -8.5625 L 1.359375 -8.5625 L 5.046875 -3.34375 L 8.6875 -8.5625 L 8.9375 -8.5625 L 8.9375 0 L 8.0625 0 L 8.0625 -6.21875 L 5.15625 -2.046875 L 4.90625 -2.046875 L 1.984375 -6.15625 L 1.984375 0 L 1.109375 0 Z M 1.109375 -8.5625 "/></g></g></g><g fill="#000000" fill-opacity="1"><g transform="translate(169.9237, 231.296203)"><g><path d="M 3.53125 -8.5625 L 3.78125 -8.5625 L 6.953125 0 L 6 0 L 5.203125 -2.1875 L 2.0625 -2.1875 L 1.28125 0 L 0.375 0 Z M 4.921875 -2.984375 L 3.640625 -6.59375 L 2.34375 -2.984375 Z M 4.921875 -2.984375 "/></g></g></g><g fill="#000000" fill-opacity="1"><g transform="translate(180.97017, 231.296203)"><g><path d="M 1.109375 -8.3125 L 1.984375 -8.3125 L 1.984375 -0.8125 L 5.328125 -0.8125 L 5.328125 0 L 1.109375 0 Z M 1.109375 -8.3125 "/></g></g></g><g fill="#000000" fill-opacity="1"><g transform="translate(190.589312, 231.296203)"><g><path d="M 3.53125 -8.5625 L 3.78125 -8.5625 L 6.953125 0 L 6 0 L 5.203125 -2.1875 L 2.0625 -2.1875 L 1.28125 0 L 0.375 0 Z M 4.921875 -2.984375 L 3.640625 -6.59375 L 2.34375 -2.984375 Z M 4.921875 -2.984375 "/></g></g></g><g fill="#000000" fill-opacity="1"><g transform="translate(201.635781, 231.296203)"><g><path d="M 2.796875 -3.21875 L 0.25 -8.3125 L 1.234375 -8.3125 L 3.28125 -4.1875 L 5.390625 -8.3125 L 6.296875 -8.3125 L 3.65625 -3.21875 L 3.65625 0 L 2.796875 0 Z M 2.796875 -3.21875 "/></g></g></g><g fill="#000000" fill-opacity="1"><g transform="translate(211.900323, 231.296203)"><g><path d="M 3.109375 0.125 C 2.546875 0.125 2.023438 -0.0078125 1.546875 -0.28125 C 1.078125 -0.550781 0.6875 -0.9375 0.375 -1.4375 L 1.046875 -1.984375 C 1.617188 -1.109375 2.3125 -0.671875 3.125 -0.671875 C 3.613281 -0.671875 4.003906 -0.800781 4.296875 -1.0625 C 4.597656 -1.332031 4.75 -1.6875 4.75 -2.125 C 4.75 -2.5 4.613281 -2.820312 4.34375 -3.09375 C 4.070312 -3.375 3.640625 -3.632812 3.046875 -3.875 C 2.296875 -4.164062 1.753906 -4.503906 1.421875 -4.890625 C 1.085938 -5.273438 0.921875 -5.738281 0.921875 -6.28125 C 0.921875 -6.601562 0.972656 -6.894531 1.078125 -7.15625 C 1.179688 -7.425781 1.332031 -7.65625 1.53125 -7.84375 C 1.738281 -8.03125 1.976562 -8.175781 2.25 -8.28125 C 2.53125 -8.382812 2.835938 -8.4375 3.171875 -8.4375 C 4.128906 -8.4375 4.914062 -8.015625 5.53125 -7.171875 L 4.859375 -6.625 C 4.609375 -6.96875 4.34375 -7.21875 4.0625 -7.375 C 3.789062 -7.539062 3.488281 -7.625 3.15625 -7.625 C 2.738281 -7.625 2.40625 -7.507812 2.15625 -7.28125 C 1.90625 -7.050781 1.78125 -6.742188 1.78125 -6.359375 C 1.78125 -5.984375 1.90625 -5.664062 2.15625 -5.40625 C 2.414062 -5.144531 2.835938 -4.898438 3.421875 -4.671875 C 4.171875 -4.378906 4.722656 -4.03125 5.078125 -3.625 C 5.441406 -3.226562 5.625 -2.753906 5.625 -2.203125 C 5.625 -1.859375 5.5625 -1.539062 5.4375 -1.25 C 5.3125 -0.96875 5.132812 -0.722656 4.90625 -0.515625 C 4.6875 -0.304688 4.421875 -0.144531 4.109375 -0.03125 C 3.804688 0.0703125 3.472656 0.125 3.109375 0.125 Z M 3.109375 0.125 "/></g></g></g><g fill="#000000" fill-opacity="1"><g transform="translate(221.866985, 231.296203)"><g><path d="M 1.109375 -8.3125 L 1.984375 -8.3125 L 1.984375 0 L 1.109375 0 Z M 1.109375 -8.3125 "/></g></g></g><g fill="#000000" fill-opacity="1"><g transform="translate(228.693511, 231.296203)"><g><path d="M 3.53125 -8.5625 L 3.78125 -8.5625 L 6.953125 0 L 6 0 L 5.203125 -2.1875 L 2.0625 -2.1875 L 1.28125 0 L 0.375 0 Z M 4.921875 -2.984375 L 3.640625 -6.59375 L 2.34375 -2.984375 Z M 4.921875 -2.984375 "/></g></g></g></svg>